<svg xmlns="http://www.w3.org/2000/svg" xmlns:xlink="http://www.w3.org/1999/xlink" xml:space="preserve" version="1.1" style="shape-rendering:geometricPrecision;text-rendering:geometricPrecision;image-rendering:optimizeQuality;" viewBox="0 0 2540 2540" x="0px" y="0px" fill-rule="evenodd" clip-rule="evenodd"><defs><style type="text/css">
   
    .fil0 {fill:white;fill-rule:nonzero}
   
  </style></defs><g><path class="fil0" d="M1955 1014l173 429c27,53 158,52 236,48l0 -783c-114,3 -293,13 -403,46 -42,13 -72,26 -72,35l0 0c-8,46 15,85 66,225z"/><path class="fil0" d="M176 612l0 797c75,2 187,3 209,-14 66,-52 218,-597 200,-687 -17,-83 -267,-94 -409,-96z"/><path class="fil0" d="M1941 1471l65 -16c-46,-106 -168,-408 -211,-561 -94,-47 -403,-282 -562,-199 -65,34 -431,349 -287,414 119,54 269,-203 416,-119 206,117 409,366 579,481z"/><path class="fil0" d="M924 817l-233 0c-23,150 -83,370 -145,517 171,136 488,627 776,592 -75,-53 -142,-132 -191,-189l0 0c-29,-34 -83,-79 -34,-124 50,-47 94,18 121,49l0 0c69,80 228,283 326,174 -90,-60 -179,-153 -231,-208l0 0c-30,-31 -81,-69 -39,-115 46,-52 94,7 121,36l1 0c67,71 202,212 289,230 19,4 35,-4 46,-34 -121,-75 -235,-219 -308,-306 -48,-58 40,-131 88,-74 78,93 238,295 341,309 26,3 48,-19 63,-85 -183,-105 -409,-386 -609,-499 -28,-16 -151,77 -163,86 -134,107 -355,58 -344,-141 4,-60 57,-141 125,-218z"/></g></svg>