<svg width="26" height="26" viewBox="0 0 26 26" fill="none" xmlns="http://www.w3.org/2000/svg">
<path d="M16.5 0.5C11.3 2.5 8.5 9 8.5 12H5.5C5.5 2.8 12.8333 0.5 16.5 0.5Z" fill="white" stroke="white"/>
<path d="M9.5 24.5C14.7 22.5 17.5 16 17.5 13H20.5C20.5 22.2 13.1667 24.5 9.5 24.5Z" fill="white" stroke="white"/>
<path d="M25 16C23 10.8 16.5 8 13.5 8V5C22.7 5 25 12.3333 25 16Z" fill="white" stroke="white"/>
<path d="M1 9C3 14.2 9.5 17 12.5 17V20C3.3 20 1 12.6667 1 9Z" fill="white" stroke="white"/>
<circle cx="13" cy="13" r="6" stroke="white" stroke-width="4"/>
</svg>
