<svg xmlns="http://www.w3.org/2000/svg" viewBox="0 0 512 512" x="0px" y="0px"><title>resign, lose, flag, white, tournament, shut down</title><path fill="#FFFFFF" d="M446.97,174.051,381.714,22.028c-5.006-11.663-17.59-16.753-26.084-10.3C339.019,24.334,292.576,57.335,234.2,52.185c-79.9-7.049-116.895,53.433-127.359,74.714L98.482,108.66a18.557,18.557,0,0,0-24.6-9.136h0a18.557,18.557,0,0,0-9.137,24.6L233.5,492.271A18.557,18.557,0,1,0,267.241,476.8l-74.28-162.041c9.793-21.418,43.808-79.378,122.874-72.4,67.675,5.971,114.522-33.1,128.2-46.227C449.349,191.028,450.4,182.029,446.97,174.051Z"/></svg>